<svg width="82" height="24" viewBox="0 0 82 24" fill="none" xmlns="http://www.w3.org/2000/svg"><path d="M78.673 23.714H3.325c-1.606.057-2.982-1.257-3.04-2.857V3.2C.344 1.543 1.663.286 3.326.286H78.73c1.662 0 2.981 1.257 3.039 2.914v17.6c-.058 1.657-1.434 2.914-3.097 2.914z" fill="#000"/><path d="M78.903.571c1.377 0 2.524 1.143 2.524 2.515V20.97c0 1.372-1.147 2.515-2.524 2.515H3.097C1.72 23.429.63 22.286.573 20.914V3.086C.573 1.714 1.72.57 3.096.57h75.807zM78.962 0H3.039C1.376 0 .057 1.314 0 2.971v18C0 22.63 1.376 24 3.04 24h75.92c1.664 0 2.983-1.314 3.04-2.971V2.97C81.943 1.314 80.624 0 78.96 0z" fill="#A6A6A6"/><path d="M29.474 6.857c0 .457-.114.857-.401 1.143a1.69 1.69 0 0 1-1.262.514c-.516 0-.917-.171-1.261-.514a1.677 1.677 0 0 1-.516-1.257c0-.514.172-.914.516-1.257a1.689 1.689 0 0 1 1.261-.515c.23 0 .459.058.688.172.23.114.402.228.516.4l-.286.286c-.23-.286-.516-.4-.918-.4-.344 0-.688.114-.917.4-.287.228-.402.571-.402.971s.115.743.402.971c.287.229.573.4.917.4.402 0 .688-.114.975-.4a.944.944 0 0 0 .287-.685H27.81v-.457h1.663v.228zm2.58-1.428h-1.548v1.085h1.434v.4h-1.434V8h1.549v.457h-1.95V5.03h2.007l-.057.4zM33.89 8.4h-.458V5.429h-.975v-.4h2.351v.4h-.975V8.4h.057zm2.638 0V5.029h.459V8.4h-.459zm2.351 0h-.458V5.429h-.975v-.4h2.294v.4h-.975l.114 2.971zm5.39-.457a1.69 1.69 0 0 1-1.261.514c-.516 0-.917-.171-1.261-.514a1.677 1.677 0 0 1-.517-1.257c0-.515.172-.915.517-1.257a1.689 1.689 0 0 1 1.261-.515c.516 0 .918.172 1.262.515.344.342.516.742.516 1.257 0 .514-.172.971-.516 1.257zm-2.178-.229c.229.229.573.4.917.4.344 0 .688-.114.918-.4.229-.228.4-.571.4-.971s-.114-.743-.4-.972c-.23-.228-.574-.4-.918-.4-.344 0-.688.115-.917.4-.23.229-.402.572-.402.972s.115.743.401.971zm3.268.686V5.029h.516l1.663 2.628V5.03h.459V8.4h-.459L45.76 5.657V8.4h-.402z" fill="#FEFEFE"/><path d="M29.532 6.857c0 .229-.058.457-.115.629-.058.171-.172.4-.344.514a2.06 2.06 0 0 1-.574.4c-.229.114-.458.114-.688.114-.23 0-.516-.057-.688-.114a2.059 2.059 0 0 1-.573-.4 2.053 2.053 0 0 1-.402-.571c-.114-.229-.114-.458-.114-.686 0-.229.057-.514.114-.686.058-.171.23-.4.402-.571.172-.172.344-.286.573-.4.23-.115.459-.115.688-.115.115 0 .23 0 .344.058.115 0 .23.057.344.114.115.057.23.114.287.171a.447.447 0 0 1 .23.229V5.6l-.345.343v-.057c-.114-.115-.229-.229-.344-.286a1.148 1.148 0 0 0-.516-.114c-.172 0-.344.057-.516.114-.115.057-.287.171-.344.286-.115.114-.23.228-.287.4-.057.171-.114.343-.114.514 0 .171 0 .4.114.514.058.172.172.286.287.4.115.115.287.229.401.286.115.057.287.114.46.114.171 0 .343-.057.515-.114s.287-.171.402-.286c.057-.057.172-.171.172-.285.057-.115.057-.172.057-.286h-1.261V6.57h1.777v.286h.058zm-.23.572c.058-.172.115-.4.115-.629v-.171h-1.548v.342h1.261v.058c0 .114 0 .285-.057.4-.058.114-.115.228-.23.342-.172.172-.286.229-.458.343-.172.057-.344.115-.516.115-.172 0-.345-.058-.517-.115-.172-.057-.286-.171-.458-.285-.115-.115-.23-.229-.287-.4-.057-.172-.115-.343-.115-.572 0-.228.058-.4.115-.571.057-.172.172-.286.287-.4.114-.115.23-.229.401-.286.172-.057.344-.114.516-.114.23 0 .402.057.516.114.115.057.287.171.344.286l.23-.229-.172-.171a1.264 1.264 0 0 0-.287-.172c-.115-.057-.23-.114-.344-.114-.115-.057-.23-.057-.344-.057-.23 0-.459.057-.688.114-.172.057-.402.229-.516.343a1.35 1.35 0 0 0-.344.514 2.11 2.11 0 0 0-.115.686c0 .229.057.457.115.686.057.171.229.4.344.514.172.171.344.286.516.343.172.057.401.114.688.114.23 0 .459-.057.688-.114.172-.057.401-.229.516-.343.172-.229.287-.343.344-.571zm2.753-1.943h-1.491v.971h1.433v.514h-1.433v.972h1.548v.571h-2.064V5.03h2.064l-.057.457zm-1.549-.115h1.491v-.285h-1.892v3.257h1.835V8h-1.548V6.857h1.433v-.286h-1.433l.114-1.2zm3.383 3.086h-.516V5.486H32.4V4.97h2.465v.515h-.974v2.971zm-.4-.114h.343V5.37h.975v-.285h-2.236v.285h.974v2.972h-.057zm2.981.057V4.971h.573v3.486L36.47 8.4zm.115-3.314v3.257h.344V5.086h-.344zm2.293 3.371h-.516V5.486h-.975V4.97h2.409v.515h-.975v2.971h.057zm-.401-.114h.287V5.37h.974v-.285H37.56v.285h.974v2.972h-.057zM44.269 8a2.06 2.06 0 0 1-.574.4c-.23.114-.459.114-.688.114-.23 0-.516-.057-.688-.114a2.059 2.059 0 0 1-.574-.4 2.053 2.053 0 0 1-.4-.571c-.116-.229-.116-.458-.116-.686 0-.229.058-.514.115-.686.115-.228.23-.4.401-.571a2.05 2.05 0 0 1 .574-.4c.23-.115.459-.115.688-.115.23 0 .516.058.688.115.23.114.401.228.574.4.172.171.286.343.401.571.115.229.115.457.115.686 0 .228-.058.514-.115.686-.057.228-.23.4-.401.571zm-.574.286c.172-.057.401-.229.516-.343a1.35 1.35 0 0 0 .344-.514c.058-.172.115-.4.115-.686 0-.286-.057-.457-.115-.686-.057-.171-.23-.4-.344-.514a1.354 1.354 0 0 0-.516-.343 2.145 2.145 0 0 0-.688-.114c-.23 0-.459.057-.688.114-.172.057-.402.229-.516.343a1.349 1.349 0 0 0-.344.514c-.115.229-.172.4-.172.686 0 .228.057.457.114.686.058.171.23.4.344.514.172.171.345.286.517.343.172.057.401.114.688.114.286 0 .516 0 .745-.114zm-1.548-.629c.115.114.23.229.401.286.172.057.287.057.459.057.172 0 .344-.057.516-.114.115-.057.287-.172.344-.286.115-.114.23-.229.287-.4.057-.171.115-.343.115-.514 0-.172-.058-.4-.115-.515-.058-.171-.172-.285-.287-.4-.114-.114-.23-.228-.401-.285a1.083 1.083 0 0 0-.459-.115c-.172 0-.344.058-.516.115-.115.057-.287.171-.344.285a1.74 1.74 0 0 0-.287.4c-.057.172-.114.286-.114.515 0 .171.057.4.114.514.057.229.172.343.287.457zm.344.4a1.25 1.25 0 0 1-.459-.286 1.735 1.735 0 0 1-.286-.4 1.684 1.684 0 0 1-.115-.571c0-.171.057-.4.114-.514.058-.172.172-.343.287-.457.115-.115.23-.229.402-.286.172-.057.344-.114.516-.114.172 0 .344.057.516.114.172.057.344.171.459.286.114.114.229.228.286.4.058.171.115.342.115.571 0 .171-.057.4-.115.514a1.243 1.243 0 0 1-.286.457c-.115.115-.23.229-.402.286-.172.057-.344.114-.516.114-.172-.057-.344-.057-.516-.114zm2.81.343V4.971h.573l1.548 2.515V4.97h.574v3.486h-.516L45.817 5.83v2.628L45.3 8.4zm.114-3.314v3.257h.287V5.486L47.537 8.4h.344V5.086h-.287v2.8l-1.72-2.8h-.459zm-4.3 8.285c-1.377 0-2.409 1.029-2.409 2.4 0 1.372 1.09 2.4 2.409 2.4 1.376 0 2.408-1.028 2.408-2.4.057-1.428-1.032-2.4-2.408-2.4zm0 3.829c-.746 0-1.377-.629-1.377-1.486s.631-1.486 1.377-1.486c.745 0 1.376.572 1.376 1.486 0 .857-.63 1.486-1.376 1.486zm-5.218-3.829c-1.377 0-2.409 1.029-2.409 2.4 0 1.372 1.09 2.4 2.409 2.4 1.376 0 2.408-1.028 2.408-2.4 0-1.428-1.09-2.4-2.408-2.4zm0 3.829c-.746 0-1.377-.629-1.377-1.486s.631-1.486 1.377-1.486c.745 0 1.376.572 1.376 1.486-.058.857-.631 1.486-1.377 1.486zm-6.308-3.086v1.029h2.408c-.057.571-.287 1.028-.573 1.314-.344.343-.918.743-1.835.743a2.725 2.725 0 0 1-2.638-2.743c0-1.486 1.204-2.686 2.638-2.686.803 0 1.433.343 1.892.743l.746-.743c-.631-.571-1.434-1.028-2.523-1.028-2.008 0-3.785 1.714-3.785 3.714s1.72 3.714 3.784 3.714c1.147 0 1.893-.343 2.58-1.085.689-.686.918-1.657.918-2.343 0-.229 0-.457-.057-.629H29.59zm25.69.8c-.23-.571-.804-1.543-2.065-1.543s-2.236.972-2.236 2.4c0 1.372 1.032 2.4 2.35 2.4 1.09 0 1.778-.685 1.95-1.085l-.803-.572c-.286.4-.63.686-1.204.686-.573 0-.917-.229-1.204-.743l3.211-1.371v-.172zm-3.27.8c0-.914.746-1.428 1.262-1.428.402 0 .803.228.918.514l-2.18.914zM49.316 18h1.09v-7.029h-1.09V18zm-1.663-4.114c-.287-.286-.746-.572-1.32-.572-1.203 0-2.293 1.086-2.293 2.4 0 1.315 1.09 2.343 2.294 2.343.573 0 1.032-.286 1.261-.571h.058v.342c0 .915-.516 1.43-1.32 1.43-.63 0-1.089-.458-1.203-.858l-.86.457c.286.629.974 1.429 2.121 1.429 1.262 0 2.237-.743 2.237-2.458v-4.285h-1.033v.343h.058zM46.39 17.2c-.745 0-1.376-.629-1.376-1.486s.63-1.486 1.376-1.486c.746 0 1.32.63 1.32 1.486 0 .857-.574 1.486-1.32 1.486zm13.82-6.229h-2.523V18h1.09v-2.629h1.49c1.204 0 2.294-.857 2.294-2.171 0-1.314-1.204-2.229-2.351-2.229zm.057 3.372H58.72v-2.4h1.548c.803 0 1.262.686 1.262 1.2-.115.571-.574 1.2-1.262 1.2zm6.48-1.029c-.803 0-1.606.343-1.892 1.086l.974.4c.23-.4.574-.514.975-.514.574 0 1.09.343 1.147.914v.057c-.172-.114-.63-.286-1.09-.286-1.032 0-2.006.572-2.006 1.6 0 .972.86 1.6 1.777 1.6.746 0 1.09-.343 1.376-.685h.058v.571h1.032v-2.686c-.23-1.314-1.204-2.057-2.351-2.057zm-.115 3.886c-.344 0-.86-.171-.86-.629 0-.571.63-.743 1.147-.743.459 0 .688.115.975.23-.115.685-.688 1.142-1.262 1.142zm5.906-3.714-1.204 3.028h-.057l-1.262-3.028H68.87l1.835 4.285-1.09 2.343h1.09l2.867-6.628H72.54zM63.078 18h1.09v-7.029h-1.09V18zM8.544 5.314c-.172.172-.23.457-.23.8v12.457c0 .343.115.629.287.8l.058.058 6.995-6.972v-.114l-7.11-7.029zm9.748 9.486L16 12.514v-.171l2.293-2.286.058.057 2.752 1.6c.803.457.803 1.2 0 1.657l-2.81 1.429zm-.114.114-2.409-2.343L8.716 19.6c.287.286.688.286 1.204.057l8.258-4.743zm0-5.028L9.92 5.2c-.516-.286-.917-.229-1.204.057l7.053 6.972 2.409-2.343z" fill="#FEFEFE"/><path d="m17.948 14.686-8.2 4.571c-.46.286-.86.229-1.147 0l-.058.057.058.057c.286.229.688.286 1.146 0l8.2-4.685zm-9.404 4.571c-.172-.171-.23-.457-.23-.8v.057c0 .343.115.629.23.743zm12.214-6.171-2.81 1.6.058.057 2.752-1.657c.401-.172.573-.457.573-.743 0 .286-.229.514-.573.743z" fill="#FEFEFE" fill-opacity=".2"/></svg>