<svg width="82" height="24" viewBox="0 0 82 24" fill="none" xmlns="http://www.w3.org/2000/svg"><g clip-path="url(#a)"><path d="M79.076 24H2.867A2.834 2.834 0 0 1 0 21.143V2.857C0 1.257 1.262 0 2.867 0h76.209C80.68-.057 81.943 1.2 82 2.8v18.343c0 1.6-1.261 2.857-2.867 2.857h-.057z" fill="#A6A6A6"/><path d="M79.076 23.429H2.924c-1.261.057-2.293-.972-2.35-2.229V2.857A2.296 2.296 0 0 1 2.866.571h76.266c1.261 0 2.35 1.029 2.35 2.286v18.286a2.398 2.398 0 0 1-2.407 2.286z" fill="#000"/><path d="M18.292 11.886c0-1.943 1.606-2.857 1.663-2.915a3.419 3.419 0 0 0-2.867-1.542c-1.147-.115-2.351.685-2.924.685-.631 0-1.549-.685-2.58-.685-1.32 0-2.524.742-3.155 1.942-1.376 2.343-.344 5.829.975 7.715.63.914 1.434 1.943 2.409 1.943.974-.058 1.376-.629 2.523-.629 1.204 0 1.548.629 2.523.571 1.032 0 1.72-.914 2.35-1.885.746-1.086 1.09-2.115 1.09-2.172 0 0-2.007-.743-2.007-3.028zm-1.95-5.715c.574-.685.86-1.542.803-2.457-.745.057-1.72.515-2.293 1.143-.516.572-.918 1.486-.803 2.343.86.114 1.72-.4 2.294-1.029zm16.171 12.743h-1.376l-.745-2.343h-2.638l-.746 2.343H25.69l2.638-8h1.606l2.58 8zm-2.35-3.371-.689-2.057L29.073 12l-.402 1.486-.688 2.057h2.18zm9.06.4a3.174 3.174 0 0 1-.803 2.343c-.46.514-1.09.743-1.778.743-.745 0-1.319-.286-1.663-.8v3.028H33.66V15.03l-.057-1.886h1.147l.057.914a2.076 2.076 0 0 1 1.95-1.028c.688 0 1.261.285 1.72.8.516.571.803 1.314.745 2.114zm-1.32.057c0-.571-.114-1.029-.4-1.371-.288-.4-.632-.572-1.148-.572-.344 0-.63.114-.86.286-.287.228-.401.457-.516.8l-.057.4v.971c0 .4.114.743.401 1.086.287.286.574.457 1.032.457.459 0 .86-.171 1.147-.571.287-.457.401-.972.401-1.486zm7.971-.057a3.174 3.174 0 0 1-.803 2.343c-.458.514-1.09.743-1.777.743-.746 0-1.32-.286-1.663-.8v3.028h-1.32V15.03l-.056-1.886H41.4l.115.914a2.076 2.076 0 0 1 1.95-1.028c.688 0 1.261.285 1.72.8.459.514.688 1.257.688 2.114zM44.555 16c0-.571-.114-1.029-.401-1.371-.287-.4-.63-.572-1.147-.572-.344 0-.63.114-.86.286-.287.228-.402.457-.516.8l-.058.4v.971c0 .4.115.743.402 1.086.286.286.573.457 1.032.457.459 0 .86-.171 1.147-.571.286-.4.401-.857.401-1.486zm8.831.629c0 .685-.23 1.257-.688 1.657-.516.457-1.262.685-2.18.685-.86 0-1.547-.171-2.063-.514l.286-1.086a3.619 3.619 0 0 0 1.892.515c.46 0 .86-.115 1.147-.343.287-.229.402-.514.402-.857 0-.343-.115-.572-.344-.8-.23-.229-.574-.4-1.09-.629-1.433-.514-2.121-1.257-2.121-2.286 0-.628.229-1.2.745-1.6.516-.4 1.147-.628 1.95-.628.745 0 1.319.114 1.835.4l-.344 1.028c-.46-.228-1.033-.342-1.549-.342-.458 0-.803.114-1.09.342-.229.172-.343.458-.343.743 0 .343.114.572.344.8l1.147.629c.573.228 1.09.514 1.548.971.344.343.516.8.516 1.315zm4.243-2.515h-1.433v2.8c0 .686.23 1.086.745 1.086l.574-.057.057.971c-.23.115-.573.115-1.032.115-.516 0-.918-.172-1.204-.458-.287-.285-.46-.8-.46-1.542v-2.915h-.745v-.971h.86v-1.029l1.262-.4v1.429h1.434v.971h-.058zm6.423 1.829c0 .857-.23 1.6-.746 2.171-.516.572-1.261.857-2.121.857-.86 0-1.549-.285-2.065-.857-.516-.571-.745-1.257-.745-2.114 0-.914.286-1.6.803-2.171.516-.572 1.204-.858 2.121-.858.86 0 1.548.286 2.065.858.458.571.688 1.257.688 2.114zm-1.32.057a2.71 2.71 0 0 0-.343-1.371c-.287-.458-.631-.686-1.147-.686s-.918.228-1.204.686c-.23.4-.344.857-.344 1.371s.114.971.344 1.371c.286.458.688.686 1.147.686.516 0 .86-.228 1.146-.686.287-.342.402-.857.402-1.371zm5.563-1.714-.401-.057c-.402 0-.803.171-1.032.514-.23.286-.344.686-.344 1.143v3.028h-1.32v-3.943l-.057-1.828h1.147l.057 1.086h.058a2.03 2.03 0 0 1 .63-.915c.287-.228.574-.285.918-.285h.344v1.257zm5.792 1.485-.058.572H70.13c0 .514.172.971.574 1.314.344.286.745.4 1.261.4a4.39 4.39 0 0 0 1.548-.286l.23.915a5.6 5.6 0 0 1-1.95.343 2.687 2.687 0 0 1-2.122-.8 2.832 2.832 0 0 1-.745-2.115c0-.857.23-1.6.745-2.171.459-.629 1.204-.914 2.007-.914.86 0 1.491.285 1.893.914.344.457.516 1.086.516 1.828zm-1.262-.342c0-.343-.057-.686-.23-.972-.229-.343-.63-.514-1.031-.514-.402 0-.746.171-1.033.514-.229.286-.344.629-.401.972h2.695zM29.76 6c0 .686-.229 1.257-.63 1.6-.401.343-.975.514-1.72.514l-.918-.057V4.171l1.09-.057c.688 0 1.204.172 1.548.457.459.343.63.8.63 1.429zm-.687 0c0-.457-.115-.8-.344-1.029-.23-.228-.631-.342-1.09-.342l-.516.057V7.6h.459c.459 0 .86-.114 1.147-.4.23-.286.344-.686.344-1.2zm4.243.629c0 .457-.115.8-.401 1.085-.287.286-.631.457-1.032.457-.402 0-.746-.114-.975-.4a1.6 1.6 0 0 1-.402-1.085c0-.457.115-.8.402-1.086.23-.286.573-.4 1.032-.4.401 0 .745.114 1.032.4.23.229.344.571.344 1.029zm-.688 0a1.35 1.35 0 0 0-.172-.686.631.631 0 0 0-.574-.343.631.631 0 0 0-.573.343l-.172.686c0 .285.057.457.172.685a.631.631 0 0 0 .573.343.63.63 0 0 0 .574-.343c.115-.171.172-.4.172-.685zm5.447-1.372-.917 2.8h-.573l-.344-1.2-.23-.914-.23.914-.4 1.2h-.574l-.86-2.8h.63l.345 1.372.172.914.23-.914.4-1.372h.517l.401 1.314.23.915.171-.915.344-1.314h.688zm3.27 2.8h-.632v-1.6c0-.514-.172-.743-.573-.743a.522.522 0 0 0-.459.229.647.647 0 0 0-.172.457v1.657h-.63v-2.8h.573l.057.457.344-.343a.971.971 0 0 1 .574-.171c.286 0 .516.057.688.229.23.228.344.514.344.914v1.714h-.115zm1.777 0h-.631V3.943h.63v4.114zm3.727-1.428c0 .457-.115.8-.401 1.085-.287.286-.631.457-1.033.457-.401 0-.745-.114-.974-.4-.23-.285-.402-.628-.402-1.028 0-.457.115-.8.402-1.086.229-.286.63-.4 1.032-.4.401 0 .745.114 1.032.4.23.172.344.514.344.972zm-.63 0a1.35 1.35 0 0 0-.173-.686.631.631 0 0 0-.573-.343.631.631 0 0 0-.574.343c-.114.171-.172.4-.172.686 0 .285.058.457.172.685a.631.631 0 0 0 .574.343c.23 0 .459-.114.573-.343.115-.171.172-.4.172-.685zm3.727 1.428h-.574l-.057-.343c-.172.286-.459.4-.86.4-.287 0-.517-.057-.631-.228a.732.732 0 0 1-.23-.572.91.91 0 0 1 .46-.8c.343-.228.802-.285 1.203-.285V6.17c0-.4-.172-.571-.573-.571-.287 0-.516.057-.745.229l-.115-.4c.287-.172.63-.229.975-.229.745 0 1.147.4 1.147 1.143v1.714zm-.689-.971v-.457c-.688 0-1.032.171-1.032.571l.115.343.344.114.401-.114.23-.343-.058-.114zm4.301.971h-.573l-.058-.457c-.172.343-.459.514-.917.514-.344 0-.631-.114-.86-.4a1.592 1.592 0 0 1-.344-1.028c0-.457.114-.8.344-1.086.229-.286.516-.4.86-.4.401 0 .63.114.803.4V3.943h.63v3.371l.115.743zm-.688-1.2V6.23l-.23-.4a.521.521 0 0 0-.4-.172c-.23 0-.402.114-.574.286-.115.171-.23.4-.23.743 0 .285.058.514.172.685a.707.707 0 0 0 .574.286c.23 0 .401-.057.516-.228a.963.963 0 0 0 .172-.572zm6.136-.228c0 .457-.115.8-.402 1.085-.286.286-.63.457-1.032.457-.401 0-.745-.114-.975-.4-.23-.285-.401-.628-.401-1.028 0-.457.114-.8.401-1.086.23-.343.574-.457 1.032-.457.402 0 .746.114 1.033.4.172.229.344.571.344 1.029zm-.688 0a1.36 1.36 0 0 0-.172-.686.631.631 0 0 0-.574-.343.631.631 0 0 0-.573.343c-.115.171-.172.4-.172.686 0 .285.057.457.172.685a.631.631 0 0 0 .573.343c.23 0 .459-.114.573-.343.115-.171.172-.4.172-.685zm4.07 1.428h-.63v-1.6c0-.514-.172-.743-.573-.743a.522.522 0 0 0-.46.229.647.647 0 0 0-.171.457v1.657h-.63v-2.8h.572v.4l.345-.343a.97.97 0 0 1 .573-.171c.287 0 .516.057.688.228.23.229.344.515.344.915l-.057 1.771zm4.301-2.343h-.688v1.372c0 .343.115.514.344.514l.287-.057V8l-.516.057c-.23 0-.459-.057-.573-.228a1.27 1.27 0 0 1-.23-.743V5.714h-.401v-.457h.401v-.571l.631-.172V5.2h.688l.057.514zm3.326 2.343h-.63v-1.6c0-.514-.172-.743-.574-.743-.287 0-.516.172-.63.457l-.058.229v1.714h-.63V3.943h.63v1.714c.172-.286.459-.457.86-.457.287 0 .459.057.631.229.23.228.344.514.344.971l.057 1.657zm3.498-1.543V6.8h-1.892c0 .286.115.514.287.629.172.114.344.171.63.171l.746-.114.115.457a2.479 2.479 0 0 1-.975.171c-.459 0-.803-.114-1.032-.4-.23-.285-.402-.628-.402-1.028s.115-.8.344-1.086c.23-.286.574-.457.975-.457s.746.171.918.457c.172.286.286.571.286.914zm-.63-.171-.115-.457a.603.603 0 0 0-.516-.286c-.23 0-.402.057-.516.229-.115.114-.172.285-.172.514h1.319z" fill="#fff"/></g><defs><clipPath id="a"><path fill="#fff" d="M0 0h82v24H0z"/></clipPath></defs></svg>