<svg width="82" height="24" viewBox="0 0 82 24" fill="none" xmlns="http://www.w3.org/2000/svg"><g clip-path="url(#a)"><path d="M79.076 23.998H2.867A2.834 2.834 0 0 1 0 21.141V2.857C0 1.257 1.262 0 2.867 0h76.209C80.68-.057 81.943 1.2 82 2.8v18.34c0 1.6-1.261 2.857-2.867 2.857h-.057z" fill="#A6A6A6"/><path d="M79.076 23.427H2.925c-1.262.057-2.294-.972-2.352-2.229V2.857A2.296 2.296 0 0 1 2.867.571h76.266c1.261 0 2.351 1.029 2.351 2.286v18.284a2.398 2.398 0 0 1-2.408 2.286z" fill="#000"/><path fill-rule="evenodd" clip-rule="evenodd" d="M22.225 6.817a.772.772 0 1 0-.926 0v4.913h-.694V5.762H18.88v-.566h-3.807a1.417 1.417 0 0 0-2.778 0H8.489v.566h-1.75v12.965h13.866v-4.45h.977v-.13a1.104 1.104 0 0 0 .823-1.054 1.238 1.238 0 0 0-.18-.617v-5.66zm-6.637.154v4.476h-3.807V6.97h3.807zm-8.231 0h3.807v4.476H7.357V6.97zm11.421 10.16H8.283v-2.237h10.495v2.238zm1.26-5.684h-3.806V6.97h3.806v4.476zM34.624 8.23c.244-.067.455-.223.591-.437h-.025V6.302h-1.492v.438h.952v.9a.97.97 0 0 1-.386.231 1.71 1.71 0 0 1-.54.077.982.982 0 0 1-.85-.411 1.819 1.819 0 0 1-.308-1.106v-.335a1.893 1.893 0 0 1 .283-1.106.946.946 0 0 1 .823-.386.913.913 0 0 1 .978.824h.54a1.62 1.62 0 0 0-.489-.926 1.461 1.461 0 0 0-1.029-.335 1.543 1.543 0 0 0-1.235.515A2.189 2.189 0 0 0 32 6.122v.36a2.4 2.4 0 0 0 .232 1.003 1.625 1.625 0 0 0 1.517.9c.299.006.596-.046.875-.154zm2.128.086c.173.07.36.103.547.095a1.183 1.183 0 0 0 1.132-.643l-.309-.258a1.258 1.258 0 0 1-.334.309.947.947 0 0 1-1.106-.18 1.065 1.065 0 0 1-.258-.72h2.084v-.206a1.8 1.8 0 0 0-.334-1.132 1.15 1.15 0 0 0-.926-.386c-.238.006-.47.077-.67.206-.207.144-.375.34-.488.566a1.756 1.756 0 0 0-.18.823v.103c-.02.405.119.801.386 1.106.127.138.283.246.456.317zm.176-2.598a.741.741 0 0 1 .294-.06.735.735 0 0 1 .54.206c.13.18.2.396.206.617v.052h-1.544a.983.983 0 0 1 .258-.643.74.74 0 0 1 .246-.172zm2.892-1.166v.72h.566v.412h-.566v1.903c-.006.1.021.2.077.283a.27.27 0 0 0 .257.103c.087.002.173-.006.258-.025v.411c-.136.03-.273.047-.412.052a.735.735 0 0 1-.54-.206.816.816 0 0 1-.18-.592V5.711h-.566v-.412h.566v-.746h.54zm2.7-.334v4.115h1.441c.37.024.734-.086 1.03-.308a1.144 1.144 0 0 0 .36-.875 1.047 1.047 0 0 0-.206-.617.888.888 0 0 0-.54-.36.955.955 0 0 0 .437-.335.928.928 0 0 0 .154-.514.983.983 0 0 0-.334-.823 1.605 1.605 0 0 0-1.004-.283h-1.337zm1.364 1.749h-.823V4.656h.797a.954.954 0 0 1 .592.154.584.584 0 0 1 .206.489.576.576 0 0 1-.206.489.79.79 0 0 1-.566.18zm-.823 1.929V6.405h.926c.54 0 .797.257.797.746a.663.663 0 0 1-.231.54.823.823 0 0 1-.592.206h-.9zm2.855-1.106a1.756 1.756 0 0 1 .18-.823c.106-.232.276-.428.49-.566.216-.134.465-.205.72-.206a1.304 1.304 0 0 1 1.003.437c.27.323.409.737.386 1.158v.026c.01.277-.052.552-.18.797-.112.228-.28.422-.49.566a1.18 1.18 0 0 1-.72.206 1.304 1.304 0 0 1-1.003-.437 1.656 1.656 0 0 1-.386-1.158zm.515.051c-.014.293.067.581.231.824a.75.75 0 0 0 .643.308.772.772 0 0 0 .644-.308 1.42 1.42 0 0 0 .231-.875 1.355 1.355 0 0 0-.231-.823.748.748 0 0 0-.644-.309.733.733 0 0 0-.617.309 1.27 1.27 0 0 0-.257.874zm3.447-1.183-.026-.386h-.463V8.36h.515V6.174a.857.857 0 0 1 .308-.36.798.798 0 0 1 .438-.129.627.627 0 0 1 .463.154.656.656 0 0 1 .154.489V8.36h.514V6.328c0-.746-.334-1.106-.977-1.106a1.148 1.148 0 0 0-.926.437zm4.579 2.392a1.16 1.16 0 0 1-.9.36.988.988 0 0 1-.747-.282 1.157 1.157 0 0 1-.257-.85V5.274h.515v1.98c0 .464.18.695.565.695a.785.785 0 0 0 .798-.437V5.273h.514v3.061h-.488v-.283zm3.052-.7a.383.383 0 0 1 .034.186.55.55 0 0 1-.102.309.916.916 0 0 1-.49.128.815.815 0 0 1-.514-.154.5.5 0 0 1-.206-.412h-.514a.93.93 0 0 0 .154.515c.109.16.26.284.438.36.203.087.422.13.643.129.302.001.598-.089.849-.258a.771.771 0 0 0 .334-.668.712.712 0 0 0-.129-.412 1.028 1.028 0 0 0-.36-.283 3.157 3.157 0 0 0-.643-.206 2.143 2.143 0 0 1-.54-.18.296.296 0 0 1-.154-.283.383.383 0 0 1 .154-.334.736.736 0 0 1 .437-.129.717.717 0 0 1 .463.155.417.417 0 0 1 .18.36h.515a.903.903 0 0 0-.334-.695 1.286 1.286 0 0 0-.85-.257 1.214 1.214 0 0 0-.823.257.815.815 0 0 0-.308.643.851.851 0 0 0 .103.386.75.75 0 0 0 .334.283c.206.091.422.16.643.206.202.026.395.096.566.206a.383.383 0 0 1 .12.147zm2.53-.56a1.756 1.756 0 0 1 .18-.823c.105-.232.275-.428.489-.566.216-.134.465-.205.72-.206a1.304 1.304 0 0 1 1.003.437c.271.323.41.737.386 1.158v.026c.01.277-.052.552-.18.797-.112.228-.28.422-.489.566a1.18 1.18 0 0 1-.72.206 1.304 1.304 0 0 1-1.003-.437 1.656 1.656 0 0 1-.386-1.158zm.54.051c-.014.293.067.581.231.824a.748.748 0 0 0 .643.308.771.771 0 0 0 .644-.308 1.42 1.42 0 0 0 .231-.875 1.356 1.356 0 0 0-.231-.823.75.75 0 0 0-.644-.309.733.733 0 0 0-.617.309 1.27 1.27 0 0 0-.257.874zm3.447-1.183L64 5.273h-.463V8.36h.514V6.174a.857.857 0 0 1 .309-.36.798.798 0 0 1 .437-.129.627.627 0 0 1 .463.154.654.654 0 0 1 .155.489V8.36h.514V6.328c0-.746-.334-1.106-.977-1.106a1.148 1.148 0 0 0-.926.437zm-25.8 10.752c-.104.824-.387 1.441-.901 1.878a2.997 2.997 0 0 1-2.007.67 2.742 2.742 0 0 1-2.186-.978c-.54-.643-.823-1.518-.823-2.624v-.746a4.295 4.295 0 0 1 .386-1.878 2.83 2.83 0 0 1 2.7-1.698 2.712 2.712 0 0 1 1.955.695 2.86 2.86 0 0 1 .85 1.903h-1.03a2.23 2.23 0 0 0-.566-1.337 1.666 1.666 0 0 0-1.234-.412 1.777 1.777 0 0 0-1.518.72c-.36.49-.54 1.158-.54 2.033v.746a3.475 3.475 0 0 0 .514 1.98 1.704 1.704 0 0 0 1.467.746c.461.035.92-.103 1.286-.386.309-.257.489-.694.591-1.337h1.055v.026zm4.63 1.827c.01.203.053.403.128.591v-.025h1.029v-.077a3.386 3.386 0 0 1-.206-1.26v-2.625a1.874 1.874 0 0 0-.592-1.363c-.36-.334-.874-.489-1.543-.489-.39-.018-.78.062-1.132.232a2.622 2.622 0 0 0-.823.643c-.194.23-.304.521-.309.823h.978a.799.799 0 0 1 .36-.643c.253-.184.562-.275.874-.257a1.233 1.233 0 0 1 .9.308 1.128 1.128 0 0 1 .31.824v.437h-.952c-.823 0-1.44.154-1.904.489a1.663 1.663 0 0 0-.669 1.389 1.528 1.528 0 0 0 .54 1.209c.382.338.88.513 1.39.488a2.22 2.22 0 0 0 1.62-.694zm-.618-.386a1.78 1.78 0 0 1-.875.232 1.145 1.145 0 0 1-.797-.258.897.897 0 0 1-.309-.72c0-.695.617-1.055 1.8-1.055h.773v1.184c-.127.263-.334.48-.592.617zm6.405-.54a.735.735 0 0 0-.309-.617 2.68 2.68 0 0 0-1.029-.386 4.908 4.908 0 0 1-1.183-.386 1.712 1.712 0 0 1-.643-.54 1.316 1.316 0 0 1-.206-.72 1.486 1.486 0 0 1 .592-1.184 2.243 2.243 0 0 1 1.518-.489 2.341 2.341 0 0 1 1.569.49 1.648 1.648 0 0 1 .591 1.285h-.977a.897.897 0 0 0-.335-.694c-.236-.2-.54-.3-.848-.283a1.257 1.257 0 0 0-.824.231.805.805 0 0 0-.308.618.638.638 0 0 0 .283.54c.311.17.651.284 1.003.334.41.078.807.208 1.183.386.263.124.493.31.669.54.16.225.242.496.231.772a1.467 1.467 0 0 1-.617 1.235 2.554 2.554 0 0 1-1.595.463 2.98 2.98 0 0 1-1.209-.232 1.937 1.937 0 0 1-.823-.669 1.561 1.561 0 0 1-.308-.951h.977a1.029 1.029 0 0 0 .386.771c.287.197.63.296.977.283.317.013.63-.067.9-.231a.57.57 0 0 0 .335-.566zm2.418-6.097a.63.63 0 0 0-.118.621.514.514 0 0 0 .118.177.697.697 0 0 0 .875 0 .486.486 0 0 0 .154-.386.544.544 0 0 0-.154-.412.567.567 0 0 0-.438-.154.486.486 0 0 0-.437.154zm-.077 7.614h.977v-5.71h-.977v5.71zm3.447-5.71.026.72a2.096 2.096 0 0 1 1.697-.823c1.21 0 1.827.669 1.827 2.032v3.782h-.978v-3.782a1.256 1.256 0 0 0-.283-.9c-.18-.206-.463-.283-.874-.283a1.309 1.309 0 0 0-.823.257 1.8 1.8 0 0 0-.566.669v4.039h-.978v-5.711h.952zm5.119 1.286a3.286 3.286 0 0 0-.335 1.518h.026v.051c-.04.778.218 1.54.72 2.135a2.667 2.667 0 0 0 3.242.438c.395-.246.708-.605.9-1.03.213-.467.319-.977.309-1.491v-.077a3.068 3.068 0 0 0-.72-2.135 2.36 2.36 0 0 0-1.879-.798 2.6 2.6 0 0 0-1.337.36 2.402 2.402 0 0 0-.926 1.03zm1.08 3.164a2.472 2.472 0 0 1-.437-1.517 2.809 2.809 0 0 1 .463-1.672 1.349 1.349 0 0 1 1.157-.566 1.45 1.45 0 0 1 1.184.591c.304.446.457.978.437 1.518a2.7 2.7 0 0 1-.437 1.62 1.417 1.417 0 0 1-1.184.592 1.394 1.394 0 0 1-1.183-.566zM9.557 7.766a.869.869 0 0 0 .295.054c.226-.024.45-.067.669-.129l.309.258s-.618.797-.746 1.414a15.804 15.804 0 0 0-.206 1.467h-1.57a1.4 1.4 0 0 1 .18-.72A4.003 4.003 0 0 1 9.57 8.9s-.283.026-.514.026a2.508 2.508 0 0 0-.643.052.612.612 0 0 0-.386.566h-.309V7.69H8v.283a3.475 3.475 0 0 1 1.08-.283c.243 0 .367.04.477.075zm4.694.054c-.126 0-.207-.026-.295-.054a1.363 1.363 0 0 0-.477-.075 3.475 3.475 0 0 0-1.08.283v-.283h-.283v1.853h.308a.612.612 0 0 1 .386-.566c.211-.045.428-.062.643-.052.232 0 .515-.026.515-.026a4.004 4.004 0 0 0-1.08 1.21 1.4 1.4 0 0 0-.18.72h1.569s.077-.85.205-1.467c.129-.617.746-1.414.746-1.414l-.308-.258a4.15 4.15 0 0 1-.67.129zm2.73 1.356a.612.612 0 0 0-.106.342h-.31V7.666h.258v.282a3.475 3.475 0 0 1 1.08-.282c.243 0 .367.039.477.074.089.029.17.054.295.054.236-.015.47-.058.695-.128l.308.257s-.617.797-.745 1.415a15.814 15.814 0 0 0-.206 1.466h-1.57a1.414 1.414 0 0 1 .18-.72 4.004 4.004 0 0 1 1.081-1.21s-.283.026-.514.026a2.508 2.508 0 0 0-.643.052.612.612 0 0 0-.28.224z" fill="#fff"/></g><defs><clipPath id="a"><path fill="#fff" d="M0 0h82v24H0z"/></clipPath></defs></svg>