<svg width="21" height="21" viewBox="0 0 21 21" fill="none" xmlns="http://www.w3.org/2000/svg"><path fill-rule="evenodd" clip-rule="evenodd" d="M12.697 3.5c1.278 0 2.483.5 3.392 1.41A4.77 4.77 0 0 1 17.5 8.304v4.394a4.77 4.77 0 0 1-1.41 3.392 4.769 4.769 0 0 1-3.393 1.411H8.303c-1.278 0-2.483-.5-3.392-1.41A4.769 4.769 0 0 1 3.5 12.696V8.303c0-1.278.5-2.483 1.41-3.392A4.769 4.769 0 0 1 8.304 3.5h4.394zm-5.902 7a3.71 3.71 0 0 0 3.705 3.705 3.71 3.71 0 0 0 3.705-3.705A3.71 3.71 0 0 0 10.5 6.795 3.71 3.71 0 0 0 6.795 10.5zm7.52-3.404a.413.413 0 0 0 .41-.41.413.413 0 0 0-.41-.41.412.412 0 0 0-.41.41.412.412 0 0 0 .41.41zM8.75 10.5c0-.965.785-1.75 1.75-1.75s1.75.785 1.75 1.75-.785 1.75-1.75 1.75-1.75-.785-1.75-1.75z" fill="#fff"/></svg>