<svg width="144" height="44" viewBox="0 0 144 44" fill="none" xmlns="http://www.w3.org/2000/svg"><path fill-rule="evenodd" clip-rule="evenodd" d="m26.327 20.533 1.552-5.485h7.202c3.794 0 6.108-1.73 7.155-5.426l.584-2.024C44.157 2.904 41.977 0 37.176 0H5.82L0 20.533h26.327zm10.82-14.99-1.222 4.43h-6.607l1.255-4.415 6.574-.014zm8.349 14.99 1.929-3.43h8.92v3.43h5.877V0h-11.52L38.688 20.533h6.808zm8.413-14.96h2.436v6.541h-6.128l3.692-6.54zm32.758 2.025-.534 1.848h-.011c-.765 2.722-2.215 4.363-4.415 5.049l1.838 6.038H77.27l-1.71-5.661h-3.794l-1.605 5.661h-6.107L69.87 0h11.14c4.801 0 6.984 2.845 5.656 7.598zm-5.681-2.054H74.41l-1.258 4.428h6.613l1.22-4.428zm10.878 14.99L97.68 0h-6.107l-5.82 20.533h6.111zm-44.27 11.143 6.89-8.21h7.91L56.58 44h-6.11l3.355-11.74-5.681 6.723h-3.928l-2.139-6.347L38.863 44H12.536l5.819-20.533h26.414l2.825 8.21zm22.957-8.21L58.537 44h6.808l1.929-3.434h8.92V44h5.874V23.467H70.551zm-.473 12.114 3.68-6.541h2.436v6.541h-6.116zm34.273-12.114-1.658 5.867h-5.734L92.804 44h-6.108l4.156-14.666h-6.688l1.657-5.867h18.53zm6.458 5.867h9.25l1.69-5.867h-9.864c-3.793 0-6.107 1.73-7.155 5.426l-2.153 7.51c-1.366 4.81.843 7.597 5.643 7.597h7.681l1.657-5.867h-9.25l2.501-8.799zm24.626 1.466 2.08-7.333h6.108L137.804 44h-6.107l2.077-7.333h-6.983L124.714 44h-6.108l5.819-20.533h6.107l-2.077 7.333h6.98z" fill="#F8FF13"/></svg>