<svg width="26" height="20" viewBox="0 0 26 20" fill="none" xmlns="http://www.w3.org/2000/svg"><g clip-path="url(#a)" fill="#fff"><path d="M4.736 19.95v-1.3c.05-.45-.302-.8-.755-.85H3.88c-.302 0-.605.1-.756.4a.805.805 0 0 0-.705-.4c-.252 0-.504.1-.605.3v-.25H1.36v2.1h.454v-1.2c-.05-.25.151-.5.453-.55h.05c.303 0 .454.2.454.55v1.2h.454v-1.2c-.05-.25.151-.5.453-.55h.05c.303 0 .454.2.454.55v1.2h.554zm6.954-2.1h-.756v-.65h-.504v.65h-.453v.4h.453v.95c0 .5.202.8.756.8.202 0 .403-.05.605-.15l-.152-.4c-.1.05-.251.1-.403.1-.252 0-.302-.15-.302-.35v-.95h.756v-.4zm3.93-.05c-.252 0-.453.1-.554.3v-.25h-.454v2.1h.454v-1.2c0-.35.151-.55.453-.55.101 0 .202 0 .303.05l.15-.45h-.352zm-5.946.2c-.252-.15-.554-.25-.856-.2-.554 0-.907.25-.907.65 0 .35.252.55.756.6l.201.05c.252.05.353.1.353.2s-.151.25-.504.25c-.252 0-.504-.05-.705-.2l-.202.35c.252.2.605.3.907.25.605 0 .957-.3.957-.7 0-.4-.302-.55-.755-.65l-.202-.05c-.201 0-.353-.05-.353-.2 0-.15.152-.25.403-.25.252 0 .454.05.655.2l.252-.3zm12.396-.2c-.252 0-.454.1-.555.3v-.25h-.453v2.1h.453v-1.2c0-.35.152-.55.454-.55.1 0 .202 0 .302.05l.151-.45h-.352zm-5.946 1.1c0 .6.454 1.1 1.058 1.1h.101c.302 0 .554-.1.756-.25l-.202-.35c-.15.1-.352.2-.554.2-.353-.05-.655-.35-.605-.75.05-.35.303-.6.605-.6.201 0 .403.05.554.2l.202-.35a1.365 1.365 0 0 0-.756-.25c-.605-.05-1.109.4-1.159 1.05 0-.05 0-.05 0 0zm4.333 0v-1.05h-.453v.25c-.151-.2-.403-.3-.655-.3-.605.05-1.058.6-1.008 1.2.05.55.454.95 1.008 1 .252 0 .504-.1.655-.3v.25h.453V18.9zm-1.713 0c0-.35.303-.6.655-.6.353 0 .605.3.605.65 0 .35-.302.6-.655.6-.353 0-.605-.25-.605-.65zm-5.643-1.1c-.605 0-1.109.5-1.109 1.1 0 .6.504 1.1 1.109 1.1.302 0 .655-.1.856-.3l-.201-.35c-.151.15-.403.2-.605.2-.302.05-.604-.2-.655-.5h1.612v-.15a1.01 1.01 0 0 0-.906-1.1H13.1zm0 .4c.302 0 .504.2.554.5h-1.108c.05-.3.302-.5.554-.5zm11.64.7V17h-.454v1.1c-.151-.2-.403-.3-.655-.3-.605.05-1.058.6-1.008 1.2.05.55.454.95 1.008 1 .252 0 .504-.1.655-.3v.25h.453V18.9zm-1.714 0c0-.35.302-.6.655-.6.353 0 .605.3.605.65 0 .35-.302.6-.655.6-.353 0-.655-.25-.605-.65zm-15.67 0v-1.05h-.454v.25c-.151-.2-.403-.3-.655-.3-.605.05-1.058.6-1.008 1.2.05.55.454.95 1.008 1 .252 0 .504-.1.655-.3v.25h.454V18.9zm-1.714 0c0-.35.303-.6.655-.6.353 0 .605.3.605.65 0 .35-.302.6-.655.6-.302 0-.605-.25-.605-.65zM16.527 1.7H9.523v12.55h7.004V1.7z"/><path d="M9.926 7.95C9.926 5.5 11.035 3.2 13 1.7 9.523-1 4.485-.4 1.713 3.05c-2.72 3.45-2.116 8.45 1.36 11.2a8.142 8.142 0 0 0 9.927 0c-1.965-1.5-3.074-3.85-3.074-6.3zM26 7.95c0 4.4-3.578 7.95-8.012 7.95-1.814 0-3.527-.6-4.938-1.7 3.427-2.7 4.031-7.7 1.31-11.15A8.65 8.65 0 0 0 13 1.7C16.477-1 21.566-.4 24.287 3.05A7.948 7.948 0 0 1 26 7.95z"/></g><defs><clipPath id="a"><path fill="#fff" d="M0 0h26v20H0z"/></clipPath></defs></svg>