<svg width="84" height="20" viewBox="0 0 84 20" fill="none" xmlns="http://www.w3.org/2000/svg"><g clip-path="url(#a)" fill="#fff"><path d="M19.853 16.5h-2.594v-9h9.278v9h-2.594V9.25h-4.14l.05 7.25zm7.93-6.7v8.95h2.395V15.7c.798.85 2.095.9 2.394.9 2.245 0 3.642-1.45 3.642-3.5 0-2.15-1.397-3.55-3.592-3.55-.548 0-1.646.1-2.544 1.05h-.05v-.8h-2.244zm2.295 3.25c0-1.85 1.148-2.2 1.846-2.2.698 0 1.846.35 1.846 2.2 0 1.15-.5 2.2-1.846 2.2-1.397 0-1.846-1.05-1.846-2.2zm12.072 2.5c-.898.8-1.746 1.05-2.644 1.05-2.544 0-2.644-1.9-2.644-2.7V9.8h2.395v3.8c0 1.3.448 1.7 1.346 1.7 1.497 0 1.596-1.35 1.596-1.8V9.8h2.395v6.55h-2.395l-.05-.8zm5.786-1.95h1.446c1.148 0 1.347.35 1.347.75 0 .3-.15.65-1.347.65h-1.496l.05-1.4zM45.54 9.8v6.55h4.74c1.745 0 2.892-.35 2.892-1.65 0-1.05-.598-1.5-1.895-1.7v-.05c.848-.1 1.596-.65 1.596-1.55 0-1.6-1.895-1.6-2.594-1.6H45.54zm2.395 1.3h1.297c.698 0 1.247.1 1.247.65 0 .6-.898.6-1.297.6h-1.247V11.1zm8.23.8c0-.95 1.048-1.05 1.447-1.05.25 0 1.247 0 1.297.85v.2c-.05.65-.649.5-2.444.75-1.447.2-2.944.55-2.944 2.05 0 .55.25 1.9 2.744 1.9.948 0 2.045-.25 2.644-.9h.05l.2.65h2.493v-.1c-.449-.1-.499-.55-.449-1.25l.05-3c0-.75-.05-2.45-3.641-2.45-.848 0-3.642.1-3.741 2.35h2.294zm2.794 1.75c0 1.3-1.148 1.65-1.746 1.65-.45 0-1.197-.15-1.197-.75 0-.75.897-.9 1.396-.95.898-.15.848-.1 1.547-.35v.4zm2.593-2.55V9.8h7.632v1.3H66.54v5.25h-2.394V11.1h-2.594zM0 16.35h5.936v-5.9H0v5.9z"/><path d="M12.071 4.4v8.85h-1.197c-.549-4.35-3.292-7.1-7.731-7.65V4.4h8.928zM0 1.3v7.35h1.596c4.14 0 6.235 2.1 6.235 6.2v1.55h7.433V1.3H0zm76.169 13.3v1.7h-6.485c.05-.65.3-1.25.648-1.85.35-.6 1.048-1.35 2.096-2.3.847-.8 1.346-1.3 1.546-1.6.25-.4.399-.75.399-1.15 0-.4-.1-.75-.35-.95-.199-.2-.548-.35-.897-.35-.4 0-.698.1-.898.35-.2.25-.35.6-.399 1.15l-1.846-.2c.1-1 .45-1.75 1.048-2.2.598-.45 1.297-.65 2.145-.65.948 0 1.696.25 2.244.75.55.5.799 1.15.799 1.9 0 .45-.1.85-.25 1.25s-.399.8-.748 1.25c-.2.3-.649.7-1.197 1.25-.599.55-.948.9-1.098 1.05-.15.15-.299.35-.399.5h3.642v.1zm4.838 1.7v-1.95h-3.94v-1.6l4.19-6.15h1.546v6.15H84v1.65h-1.197v1.9h-1.796zm0-3.55v-3.3l-2.195 3.3h2.195z"/></g><defs><clipPath id="a"><path fill="#fff" d="M0 0h84v20H0z"/></clipPath></defs></svg>