<svg width="86" height="20" viewBox="0 0 86 20" fill="none" xmlns="http://www.w3.org/2000/svg"><path d="M0 15.547h2.196v-2.033H0v2.033zm3.132 0h2.196v-4.008H3.132v4.008zm3.132 0h2.197V9.564H6.264v5.983zm3.132 0h2.197V7.59H9.396v7.957zm11.517-2.594c0-1.414-1.184-2.575-2.617-2.575h-1.68c-.191 0-.593-.097-.593-.465 0-.387.402-.504.593-.504h3.4V7.551h-3.649c-1.394 0-2.54 1.123-2.54 2.497 0 1.375 1.146 2.498 2.54 2.498h1.7c.23 0 .668.116.668.58 0 .466-.42.562-.668.562h-3.552v1.859h3.781c1.433-.02 2.617-1.181 2.617-2.594zm7.047-1.394c0 1.161-.936 2.09-2.063 2.09-1.145 0-2.062-.948-2.062-2.09 0-1.143.936-2.091 2.062-2.091 1.127-.02 2.063.929 2.063 2.09zm2.196 0c0-2.382-1.91-4.318-4.259-4.318a4.223 4.223 0 0 0-2.903 1.162V7.55H21.62V20h2.197v-4.666a4.155 4.155 0 0 0 2.062.542c2.369 0 4.278-1.936 4.278-4.317zm6.914 0c0 1.161-.936 2.09-2.063 2.09a2.097 2.097 0 0 1-2.081-2.09c0-1.143.935-2.091 2.081-2.091 1.146-.02 2.063.929 2.063 2.09zm2.196 0c0-2.382-1.91-4.318-4.259-4.318s-4.259 1.936-4.259 4.318c0 2.381 1.91 4.317 4.26 4.317 2.348 0 4.258-1.936 4.258-4.317zM44.5 9.506h.802V7.28H44.5a4.223 4.223 0 0 0-2.903 1.161V7.61h-1.375v7.977h2.197v-3.97c0-1.18.935-2.11 2.081-2.11zm3.782-.058h1.7V7.222h-1.7V3.446h-2.197v12.082h2.197v-6.08zm8.976 2.11c0 1.162-.936 2.092-2.063 2.092-1.146 0-2.062-.95-2.062-2.091 0-1.143.936-2.091 2.062-2.091 1.146-.02 2.063.929 2.063 2.09zm2.196 0c0-2.38-1.91-4.317-4.259-4.317a4.26 4.26 0 0 0-2.1.562V0h-2.197v15.508h1.375v-.813a4.2 4.2 0 0 0 2.922 1.181c2.35 0 4.26-1.936 4.26-4.317zm7.143 0c0 1.162-.936 2.092-2.063 2.092-1.145 0-2.062-.95-2.062-2.091 0-1.143.936-2.091 2.062-2.091 1.127-.02 2.063.929 2.063 2.09zm.821 3.95h1.375V7.57h-1.375v.833a4.223 4.223 0 0 0-2.903-1.162c-2.349 0-4.259 1.936-4.259 4.318 0 2.381 1.91 4.317 4.26 4.317a4.223 4.223 0 0 0 2.902-1.162v.794zm7.525.02h2.196v-4.511c0-2.072-1.661-3.757-3.724-3.757-.898 0-1.7.31-2.349.852v-.561H69.69v7.958h2.196v-4.531c0-.852.688-1.55 1.528-1.55.84 0 1.528.698 1.528 1.55v4.55zm8.231-4.299 2.445-3.678h-2.655l-1.718 2.575h-.955V0h-2.197v15.508h2.197v-3.156h.954l2.101 3.156H86l-2.827-4.279z" fill="#fff"/></svg>