<svg width="21" height="21" viewBox="0 0 21 21" fill="none" xmlns="http://www.w3.org/2000/svg"><g clip-path="url(#a)"><path fill-rule="evenodd" clip-rule="evenodd" d="M16.086 19.932c.282.2.645.249.969.127.323-.124.561-.4.633-.736.76-3.573 2.605-12.618 3.297-15.868a.683.683 0 0 0-.227-.664.7.7 0 0 0-.698-.122C16.391 4.027 5.092 8.266.474 9.975a.723.723 0 0 0-.474.7c.01.309.219.577.519.668 2.071.62 4.79 1.481 4.79 1.481s1.27 3.837 1.932 5.788a.767.767 0 0 0 .528.504.758.758 0 0 0 .71-.181l2.709-2.558s3.125 2.292 4.898 3.555zm-9.634-7.593 1.47 4.846.326-3.069L17.16 6.08a.243.243 0 0 0 .029-.33.249.249 0 0 0-.33-.056L6.453 12.339z" fill="#fff"/></g><defs><clipPath id="a"><path fill="#fff" d="M0 0h21v21H0z"/></clipPath></defs></svg>