<svg width="40" height="20" viewBox="0 0 40 20" fill="none" xmlns="http://www.w3.org/2000/svg"><g clip-path="url(#a)" fill="#fff"><path d="M17.35 16.3H14.1l2-12.55h3.25l-2 12.55zM29.1 4.05c-.95-.35-1.9-.55-2.9-.55-3.2 0-5.45 1.7-5.45 4.15 0 1.8 1.6 2.8 2.85 3.4 1.25.6 1.7 1 1.7 1.55 0 .85-1 1.25-1.95 1.25-1.05.05-2.1-.2-3.05-.65l-.5-.2-.45 2.8c1.15.45 2.4.65 3.6.65 3.4 0 5.6-1.7 5.65-4.3 0-1.45-.85-2.5-2.7-3.4-1.15-.55-1.85-.95-1.85-1.55 0-.6.6-1.1 1.85-1.1.85 0 1.65.15 2.4.5l.3.15.5-2.7zm4.3 7.8 1.3-3.5.4-1.2.2 1.1s.6 3 .75 3.6H33.4zm4-8.1h-2.5c-.75-.1-1.45.35-1.7 1.05l-4.8 11.5h3.4l.7-1.9h4.15c.1.45.4 1.9.4 1.9h3L37.4 3.75zm-26 0L8.25 12.3l-.35-1.75C7.1 8.3 5.5 6.45 3.4 5.3l2.9 10.95h3.45l5.1-12.5H11.4z"/><path d="M5.25 3.75H.05L0 4c4.05 1.05 6.75 3.55 7.85 6.55L6.75 4.8c-.2-.8-.75-1-1.5-1.05z"/></g><defs><clipPath id="a"><path fill="#fff" d="M0 0h40v20H0z"/></clipPath></defs></svg>