<svg width="20" height="14" viewBox="0 0 20 14" fill="none" xmlns="http://www.w3.org/2000/svg"><g clip-path="url(#a)"><path fill-rule="evenodd" clip-rule="evenodd" d="M17.825.428c.857.23 1.532.906 1.763 1.763.428 1.564.412 4.825.412 4.825s0 3.245-.412 4.81a2.506 2.506 0 0 1-1.763 1.762C16.26 14 10 14 10 14s-6.244 0-7.825-.428a2.506 2.506 0 0 1-1.763-1.763C0 10.261 0 7 0 7s0-3.245.412-4.81A2.557 2.557 0 0 1 2.175.413C3.74 0 10 0 10 0s6.26 0 7.825.428zM8.007 4.002 13.213 7 8.006 9.998V4.002z" fill="#fff"/></g><defs><clipPath id="a"><path fill="#fff" d="M0 0h20v14H0z"/></clipPath></defs></svg>